# xmcd
#
# Track frame offsets:
# 150
# 20334
# 38641
# 56298
# 75471
# 93584
# 112651
# 128934
# 146015
# 162349
# 177598
# 192265
# 210782
# 227379
# 246180
#
# Disc length: 3521 seconds
#
#
# Revision: 0
# Processed by: cddbd v1.5.2PL0 Copyright (c) Steve Scherf et al.
# Submitted via: FreeRIP 2.944 
#
DISCID=b60dbf0f
DTITLE=Rick and Renner - Coisas de Deus
DYEAR=1900
DGENRE=Sertaneja
TTITLE0=Vai Vai Muuuuuuuuuuuuuuuuuuuu
TTITLE1=Credencial
TTITLE2=Coisa de Deus
TTITLE3=Tudo Errado
TTITLE4=Onde é Que o Meu Amor
TTITLE5=Nunca Amei Assim
TTITLE6=Na Cara do Meu Corção
TTITLE7=Faz Amor Que Passa
TTITLE8=Fiquei Fã
TTITLE9=Galera da Balada
TTITLE10=Vixe Maria
TTITLE11=Quando
TTITLE12=Pneuzinho
TTITLE13=Meu Anjo Mal
TTITLE14=Te Amo Pai
EXTD=
EXTT0=
EXTT1=
EXTT2=
EXTT3=
EXTT4=
EXTT5=
EXTT6=
EXTT7=
EXTT8=
EXTT9=
EXTT10=
EXTT11=
EXTT12=
EXTT13=
EXTT14=
PLAYORDER=
